#!OML:ASF \\sashay\E\Suitcase\Project 1\Capture day 1\Session 1\Male1.ASF
:FULLY-SPECIFIED
:DEGREES
425
root 1.03152 17.3621 -26.6079 1.24963 9.96838 2.88513
lowerback 7.86066 -1.53769 -6.66823
upperback -1.77141 -2.68174 0.852445
thorax -5.93882 -1.06609 4.98786
lowerneck -20.8294 -2.27306 -3.367
upperneck 17.4734 -2.06142 -0.0924148
head 8.94253 -1.20702 0.237112
rclavicle -9.50129e-015 -3.18055e-015
rhumerus -27.6061 -20.6387 -69.082
rradius 24.6943
rwrist -13.2036
rhand -14.8215 29.7273
rfingers 7.12502
rthumb 11.3369 0.0537103
lclavicle -9.50129e-015 -3.18055e-015
lhumerus -27.9402 -2.56802 80.7902
lradius 37.1323
lwrist -0.0627428
lhand -5.34109 43.5042
lfingers 7.12502
lthumb 20.4657 72.4456
rfemur -27.719 -8.74483 15.3804
rtibia 53.1403
rfoot -16.0664 -10.0869
rtoes 10.415
lfemur -5.83518 -1.67196 -28.1823
ltibia 23.9899
lfoot -20.8981 -5.03632
ltoes 2.17672
426
root 1.03606 17.3571 -26.5124 1.37761 10.1369 2.92944
lowerback 8.03253 -2.67912 -6.55476
upperback 0.0806403 -4.09884 1.76777
thorax -3.83042 -1.89928 5.97835
lowerneck -30.6667 -1.86334 -6.01916
upperneck 20.3337 -0.162299 1.0015
head 11.6786 -0.429531 1.31709
rclavicle -1.21756e-014 5.96354e-015
rhumerus -20.9805 -18.2693 -71.294
rradius 23.6927
rwrist -13.4474
rhand -14.7897 29.68
rfingers 7.12502
rthumb 11.3676 0.00809582
lclavicle -1.21756e-014 5.96354e-015
lhumerus -23.841 2.48266 80.768
lradius 36.9381
lwrist -0.326105
lhand -5.58789 45.0982
lfingers 7.12502
lthumb 20.2285 74.0649
rfemur -28.2017 -8.66745 15.3705
rtibia 51.3688
rfoot -15.5156 -10.3682
rtoes 11.9603
lfemur -5.47191 -1.72905 -28.2007
ltibia 23.7145
lfoot -20.6337 -5.32251
ltoes 4.5256
427
root 1.0462 17.3551 -26.4242 1.49003 10.2067 2.98035
lowerback 7.83358 -1.74154 -6.78848
upperback -1.56809 -2.94361 1.08452
thorax -5.65506 -1.20448 5.32364
lowerneck -22.0996 -2.09173 -3.84378
upperneck 17.7394 -1.63408 0.055094
head 9.25663 -1.02455 0.412994
rclavicle 4.8578e-014 -2.38542e-015
rhumerus -26.5426 -20.0051 -69.3962
rradius 24.8503
rwrist -13.8378
rhand -14.3558 29.5412
rfingers 7.12502
rthumb 11.786 -0.107197
lclavicle 4.8578e-014 -2.38542e-015
lhumerus -26.7919 -2.331 81.2082
lradius 37.7899
lwrist 0.639606
lhand -5.07997 44.6078
lfingers 7.12502
lthumb 20.7166 73.5221
rfemur -28.6901 -8.65134 15.3492
rtibia 49.4543
rfoot -15.3824 -10.5671
rtoes 11.0705
lfemur -4.98185 -2.33839 -28.2774
ltibia 23.5105
lfoot -20.913 -4.84924
ltoes 5.47042
428
root 1.0497 17.3656 -26.3284 1.6164 10.4051 2.96491
lowerback 7.98483 -1.67795 -6.61384
upperback -1.98715 -2.88095 0.841156
thorax -6.21575 -1.14932 4.98097
lowerneck -20.0833 -2.25194 -2.49121
upperneck 16.2463 -2.16686 -0.868862
head 8.37421 -1.27529 -0.167319
rclavicle 2.54165e-014 -3.97569e-015
rhumerus -27.8351 -20.3142 -69.1486
rradius 25.2648
rwrist -13.8113
rhand -14.5626 29.6058
rfingers 7.12502
rthumb 11.5866 -0.0538569
lclavicle 2.54165e-014 -3.97569e-015
lhumerus -27.1974 -3.1961 81.203
lradius 38.1496
lwrist 0.624272
lhand -5.10178 42.7283
lfingers 7.12502
lthumb 20.6956 71.6449
rfemur -29.0691 -8.5685 15.3793
rtibia 47.48
rfoot -15.5378 -10.5961
rtoes 13.0995
lfemur -4.77042 -2.14514 -28.2308
ltibia 23.2359
lfoot -20.8904 -5.10761
ltoes 5.38546
429
root 1.05476 17.3798 -26.2308 1.70409 10.4121 2.95658
lowerback 7.95937 -1.62229 -6.52878
upperback -2.03086 -2.80154 0.774159
thorax -6.26504 -1.11166 4.85269
lowerneck -20.5239 -1.98541 -3.29909
upperneck 17.2832 -1.81848 0.446587
head 8.82288 -1.02689 0.447096
rclavicle -3.09297e-014 2.38542e-015
rhumerus -28.2017 -20.0979 -69.3055
rradius 25.8531
rwrist -14.3715
rhand -14.1391 29.1399
rfingers 7.12502
rthumb 11.995 -0.496411
lclavicle -3.09297e-014 2.38542e-015
lhumerus -27.144 -4.19244 81.4534
lradius 38.7285
lwrist 1.41338
lhand -5.45051 45.0407
lfingers 7.12502
lthumb 20.3605 73.9934
rfemur -29.3638 -8.48288 15.4441
rtibia 45.3961
rfoot -14.6198 -10.6435
rtoes 11.5304
lfemur -4.09056 -2.4466 -28.1902
ltibia 22.8124
lfoot -21.0086 -5.03151
ltoes 7.90117
430
root 1.05526 17.3725 -26.139 1.87645 10.4017 2.97226
lowerback 7.60473 -1.4507 -6.6576
upperback -1.94252 -2.55988 0.715654
thorax -5.99741 -1.00234 4.81638
lowerneck -20.1997 -2.30114 -2.40264
upperneck 16.8934 -2.32486 -0.52583
head 8.61825 -1.31066 -0.0924016
rclavicle -1.14053e-014 1.51076e-014
rhumerus -28.246 -21.5262 -68.9601
rradius 25.715
rwrist -13.5135
rhand -13.6038 29.5101
rfingers 7.12502
rthumb 12.5111 -0.0953775
lclavicle -1.14053e-014 1.51076e-014
lhumerus -26.3952 -4.75461 81.6476
lradius 38.7481
lwrist 1.31812
lhand -5.50761 45.0154
lfingers 7.12502
lthumb 20.3056 73.9739
rfemur -29.7966 -8.03405 15.4282
rtibia 43.356
rfoot -14.4918 -10.9584
rtoes 10.6634
lfemur -3.83241 -2.30952 -28.1985
ltibia 22.3467
lfoot -20.8251 -4.98132
ltoes 6.50049
431
root 1.06534 17.3738 -26.0413 1.93713 10.5522 2.96987
lowerback 7.73753 -1.66324 -6.52518
upperback -1.84825 -2.82917 0.844468
thorax -5.93674 -1.14239 4.91208
lowerneck -21.2313 -2.15585 -2.38919
upperneck 17.5684 -1.9803 -1.03438
head 9.02283 -1.20965 -0.238533
rclavicle 2.1798e-014 -7.35503e-015
rhumerus -27.7246 -20.6727 -69.3205
rradius 25.8752
rwrist -13.8571
rhand -13.8846 29.1278
rfingers 7.12502
rthumb 12.2404 -0.49404
lclavicle 2.1798e-014 -7.35503e-015
lhumerus -26.1257 -4.52558 81.8383
lradius 39.1777
lwrist 1.73227
lhand -5.63088 44.2205
lfingers 7.12502
lthumb 20.1872 73.1916
rfemur -29.9841 -7.98421 15.4212
rtibia 41.2607
rfoot -14.4057 -11.0155
rtoes 10.5661
lfemur -3.23242 -2.72392 -28.2541
ltibia 21.9123
lfoot -20.9397 -4.42062
ltoes 6.73963
432
root 1.06665 17.3751 -25.9443 2.15105 10.7504 3.00876
lowerback 7.75389 -1.71031 -6.58115
upperback -2.02104 -2.904 0.86252
thorax -6.11694 -1.16503 4.97749
lowerneck -20.9575 -2.2478 -3.05787
upperneck 17.5457 -2.14491 0.0328474
head 8.98807 -1.21093 0.216912
rclavicle 4.68728e-014 -1.17283e-014
rhumerus -28.0001 -20.6116 -69.2603
rradius 25.9755
rwrist -13.9617
rhand -13.8869 29.568
rfingers 7.12502
rthumb 12.2382 -0.0539676
lclavicle 4.68728e-014 -1.17283e-014
lhumerus -26.0062 -4.72638 82.0578
lradius 39.308
lwrist 1.58421
lhand -5.51954 44.1295
lfingers 7.12502
lthumb 20.2942 73.0893
rfemur -30.2735 -7.92025 15.3933
rtibia 39.1145
rfoot -13.7068 -11.0804
rtoes 10.8326
lfemur -2.83927 -3.06932 -28.24
ltibia 21.5008
lfoot -20.6129 -4.63533
ltoes 9.00246
433
root 1.07598 17.3721 -25.8451 2.29746 10.4931 3.05797
lowerback 7.73816 -1.52838 -6.37072
upperback -2.24926 -2.66196 0.607906
thorax -6.40308 -1.04183 4.56703
lowerneck -20.4454 -2.39287 -2.87392
upperneck 17.5928 -2.45794 0.203295
head 8.91855 -1.32688 0.20761
rclavicle -2.50018e-014 2.78299e-015
rhumerus -28.8277 -21.211 -69.1672
rradius 26.2759
rwrist -13.7169
rhand -14.2116 29.3624
rfingers 7.12502
rthumb 11.925 -0.27796
lclavicle -2.50018e-014 2.78299e-015
lhumerus -26.1689 -5.69155 82.1132
lradius 39.5575
lwrist 1.53848
lhand -5.38521 43.328
lfingers 7.12502
lthumb 20.4233 72.2739
rfemur -30.4651 -7.4647 15.3431
rtibia 36.8672
rfoot -13.6091 -11.1742
rtoes 11.7196
lfemur -2.38311 -2.94351 -28.3683
ltibia 20.9803
lfoot -20.7429 -4.15991
ltoes 8.15631
